<?xml version="1.0" standalone="no"?>
<!DOCTYPE svg PUBLIC "-//W3C//DTD SVG 20010904//EN"
 "http://www.w3.org/TR/2001/REC-SVG-20010904/DTD/svg10.dtd">
<svg version="1.0" xmlns="http://www.w3.org/2000/svg"
 width="260.000000pt" height="260.000000pt" viewBox="0 0 260.000000 260.000000"
 preserveAspectRatio="xMidYMid meet">
<metadata>
Created by potrace 1.11, written by Peter Selinger 2001-2013
</metadata>
<g transform="translate(0.000000,260.000000) scale(0.100000,-0.100000)"
fill="#000000" stroke="none">
<path d="M0 1300 l0 -1300 1300 0 1300 0 0 1300 0 1300 -1300 0 -1300 0 0
-1300z m956 689 c192 -35 314 -171 350 -389 50 -302 -61 -589 -270 -694 -108
-55 -139 -58 -545 -63 l-374 -5 6 64 c22 210 47 734 47 960 l0 138 363 0 c220
0 387 -4 423 -11z m1468 -66 c-2 -43 -7 -106 -10 -140 l-6 -63 -249 0 -249 0
0 -80 0 -80 205 0 205 0 0 -87 c0 -49 -3 -112 -6 -140 l-7 -53 -208 0 -209 0
0 -68 c0 -38 -3 -137 -7 -220 l-6 -152 -205 0 -205 0 7 58 c20 192 46 735 46
985 l0 117 455 0 455 0 -6 -77z"/>
<path d="M573 1724 c-27 -6 -30 -27 -38 -254 -3 -91 -8 -207 -12 -259 l-6 -94
89 6 c114 7 151 19 202 63 151 129 143 439 -14 514 -47 23 -166 36 -221 24z"/>
</g>
</svg>
